2600 0 1 0           
18 Abaqus 2020 - 2601 14 ACIS 26.0.1 NT 24 Thu Mar 17 11:31:14 2022 
1 9.9999999999999995e-07 1e-10 
T @52 ESB5MU9PQN8B4ZY5NRTY_Q4GD37ZQ6PVRBQCG6YAUBTKJA5F7DQ3 
-0 body $1 -1 -1 $-1 $2 $-1 $3 T 24.000000000528026 0 0 156.00000000052816 550.00000000000011 0 #
-1 string_attrib-name_attrib-gen-attrib $-1 -1 $4 $-1 $0 2 1 1 1 1 1 1 1 1 1 1 1 1 1 0 1 1 1 @13 HKS_PART_NAME @6 Part-2 #
-2 lump $-1 -1 -1 $-1 $-1 $5 $0 T 24.000000000528026 0 0 156.00000000052816 550.00000000000011 0 #
-3 transform $-1 -1 1 0 0 0 1 0 0 0 1 0 0 0 1 no_rotate no_reflect no_shear #
-4 string_attrib-name_attrib-gen-attrib $-1 -1 $-1 $1 $0 2 1 1 1 1 1 1 1 1 1 1 1 1 1 0 1 1 1 @18 HKS_ATTRIB_BODY_ID @1 1 #
-5 shell $-1 -1 -1 $-1 $-1 $-1 $6 $-1 $2 T 24.000000000528026 0 0 156.00000000052816 550.00000000000011 0 #
-6 face $-1 -1 -1 $-1 $7 $8 $5 $-1 $9 forward double out T 24.000000000528004 497.90625 0 30.00000000055951 550.00000000000011 0 F #
-7 face $-1 -1 -1 $-1 $10 $11 $5 $-1 $9 forward double out T 150.00000000052805 0 0 156.00000000052816 378.49999999999955 0 F #
-8 loop $-1 -1 -1 $-1 $-1 $12 $6 T 24.000000000528004 497.90625 0 30.00000000055951 550.00000000000011 0 periphery $9 F #
-9 plane-surface $-1 -1 -1 $-1 125.17174037169856 294.91088723699488 0 0 0 1 1 0 0 forward_v I I I I #
-10 face $-1 -1 -1 $-1 $13 $14 $5 $-1 $9 forward double out T 24.000000000528004 482.10687545271969 0 30.00000000055951 497.90625 0 F #
-11 loop $-1 -1 -1 $-1 $-1 $15 $7 T 150.00000000052805 0 0 156.00000000052816 378.49999999999955 0 periphery $9 F #
-12 coedge $-1 -1 -1 $-1 $16 $17 $18 $19 forward $8 $-1 #
-13 face $-1 -1 -1 $-1 $20 $21 $5 $-1 $9 forward double out T 131.22832206725343 378.49999999999932 0 156.00000000052816 428.84578164381105 0 F #
-14 loop $-1 -1 -1 $-1 $-1 $22 $10 T 24.000000000528004 482.10687545271969 0 30.00000000055951 497.90625 0 periphery $9 F #
-15 coedge $-1 -1 -1 $-1 $23 $24 $25 $26 forward $11 $-1 #
-16 coedge $-1 -1 -1 $-1 $27 $12 $-1 $28 reversed $8 $-1 #
-17 coedge $-1 -1 -1 $-1 $12 $27 $-1 $29 reversed $8 $-1 #
-18 coedge $-1 -1 -1 $-1 $30 $31 $12 $19 reversed $14 $-1 #
-19 edge $-1 -1 -1 $-1 $32 -52.085870185593151 $33 -46.085870185561646 $12 $34 forward @7 unknown T 24.000000000528004 497.90625 0 30.00000000055951 497.90625 0 #
-20 face $-1 -1 -1 $-1 $35 $36 $5 $-1 $9 forward double out T 24.000000000528026 472.2068201085329 0 38.363483842824834 487.23278107370447 0 F #
-21 loop $-1 -1 -1 $-1 $-1 $25 $13 T 131.22832206725343 378.49999999999932 0 156.00000000052816 428.84578164381105 0 periphery $9 F #
-22 coedge $-1 -1 -1 $-1 $31 $30 $37 $38 reversed $14 $-1 #
-23 coedge $-1 -1 -1 $-1 $39 $15 $-1 $40 reversed $11 $-1 #
-24 coedge $-1 -1 -1 $-1 $15 $39 $-1 $41 reversed $11 $-1 #
-25 coedge $-1 -1 -1 $-1 $42 $43 $15 $26 reversed $21 $-1 #
-26 edge $-1 -1 -1 $-1 $44 -16.914129814416015 $45 -10.914129814415958 $15 $46 forward @7 unknown T 150.0000000005281 378.49999999999932 0 156.00000000052816 378.49999999999955 0 #
-27 coedge $-1 -1 -1 $-1 $17 $16 $-1 $47 reversed $8 $-1 #
-28 edge $-1 -1 -1 $-1 $48 0 $33 52.093750000000114 $16 $49 forward @7 unknown T 30.000000000528104 497.90625 0 30.00000000055951 550.00000000000011 0 #
-29 edge $-1 -1 -1 $-1 $32 15.799374547280308 $50 67.893124547280308 $17 $51 forward @7 unknown T 24.000000000528004 497.90625 0 24.000000000528161 550 0 #
-30 coedge $-1 -1 -1 $-1 $22 $18 $-1 $52 reversed $14 $-1 #
-31 coedge $-1 -1 -1 $-1 $18 $22 $-1 $53 reversed $14 $-1 #
-32 vertex $-1 -1 -1 $-1 $29 $54 #
-33 vertex $-1 -1 -1 $-1 $53 $55 #
-34 straight-curve $-1 -1 -1 $-1 76.085870186121156 497.90625 0 1 0 -0 I I #
-35 face $-1 -1 -1 $-1 $56 $57 $5 $-1 $9 forward double out T 76.176522538613185 425.00086686182493 -1.7763568394002505e-15 135.67272262477803 466.73435480763214 0 F #
-36 loop $-1 -1 -1 $-1 $-1 $58 $20 T 24.000000000528026 472.2068201085329 0 38.363483842824834 487.23278107370447 0 periphery $9 F #
-37 coedge $-1 -1 -1 $-1 $59 $60 $22 $38 forward $36 $-1 #
-38 edge $-1 -1 -1 $-1 $61 -28.254069656453176 $62 -20.362624387350493 $37 $63 forward @7 unknown T 24.000000000528132 482.10687545271969 0 30.000000000528118 487.23278107370447 0 #
-39 coedge $-1 -1 -1 $-1 $24 $23 $-1 $64 forward $11 $-1 #
-40 edge $-1 -1 -1 $-1 $65 0 $45 378.49999999999937 $23 $66 forward @7 unknown T 150.00000000052805 0 0 150.0000000005281 378.49999999999937 0 #
-41 edge $-1 -1 -1 $-1 $44 0 $67 378.49999999999955 $24 $68 forward @7 unknown T 156.0000000005281 0 0 156.00000000052816 378.49999999999955 0 #
-42 coedge $-1 -1 -1 $-1 $69 $25 $-1 $70 reversed $21 $-1 #
-43 coedge $-1 -1 -1 $-1 $25 $69 $-1 $71 reversed $21 $-1 #
-44 vertex $72 -1 -1 $-1 $41 $73 #
-45 vertex $74 -1 -1 $-1 $71 $75 #
-46 straight-curve $-1 -1 -1 $-1 139.08587018611215 378.49999999999903 0 -1 -2.8421709430403739e-14 0 I I #
-47 edge $-1 -1 -1 $-1 $50 0 $48 5.9999999999999432 $27 $76 forward @7 unknown T 24.000000000528161 550 0 30.000000000528104 550.00000000000011 0 #
-48 vertex $-1 -1 -1 $-1 $28 $77 #
-49 straight-curve $-1 -1 -1 $-1 30.000000000528104 550.00000000000011 0 0 -1 0 I I #
-50 vertex $-1 -1 -1 $-1 $47 $78 #
-51 straight-curve $-1 -1 -1 $-1 24.000000000528132 482.10687545271969 0 4.1862426600518767e-16 1 0 I I #
-52 edge $-1 -1 -1 $-1 $62 0 $32 15.799374547280308 $30 $51 forward @7 unknown T 24.000000000528004 482.10687545271969 0 24.000000000528139 497.90625 0 #
-53 edge $-1 -1 -1 $-1 $33 52.093750000000114 $61 62.767218926295641 $31 $49 forward @7 unknown T 30.000000000528104 487.23278107370447 0 30.00000000055951 497.90625 0 #
-54 point $-1 -1 -1 $-1 24.000000000528004 497.90625 0 #
-55 point $-1 -1 -1 $-1 30.00000000055951 497.90625 0 #
-56 face $-1 -1 -1 $-1 $-1 $79 $5 $-1 $9 forward double out T 32.58971485842369 461.19913835570594 -1.7763568394002505e-15 78.264927493553856 477.36759912578395 0 F #
-57 loop $-1 -1 -1 $-1 $-1 $80 $35 T 76.176522538613185 425.00086686182493 -1.7763568394002505e-15 135.67272262477803 466.73435480763214 0 periphery $9 F #
-58 coedge $-1 -1 -1 $-1 $60 $59 $81 $82 reversed $36 $-1 #
-59 coedge $-1 -1 -1 $-1 $58 $37 $-1 $83 reversed $36 $-1 #
-60 coedge $-1 -1 -1 $-1 $37 $58 $-1 $84 reversed $36 $-1 #
-61 vertex $85 -1 -1 $-1 $53 $86 #
-62 vertex $87 -1 -1 $-1 $52 $88 #
-63 straight-curve $-1 -1 -1 $-1 8.5179504952928653 468.88028802217792 0 -0.76031700092906063 -0.64955219813209686 0 I I #
-64 edge $-1 -1 -1 $-1 $65 0 $67 6.0000000000000568 $39 $89 forward @7 unknown T 150.00000000052805 0 0 156.0000000005281 0 0 #
-65 vertex $-1 -1 -1 $-1 $40 $90 #
-66 straight-curve $-1 -1 -1 $-1 150.00000000052805 0 0 1.5018076317254454e-16 1 0 I I #
-67 vertex $-1 -1 -1 $-1 $64 $91 #
-68 straight-curve $-1 -1 -1 $-1 156.00000000052816 378.49999999999955 0 -1.5018076317254447e-16 -1 0 I I #
-69 coedge $-1 -1 -1 $-1 $43 $42 $92 $93 reversed $21 $-1 #
-70 edge $-1 -1 -1 $-1 $94 2.6253843183841745 $44 3.1415926535897913 $42 $95 forward @7 unknown T 135.67272262477371 378.49999999999955 0 156.00000000052816 428.84578164381105 0 #
-71 edge $-1 -1 -1 $-1 $45 0 $96 0.50565894811029244 $43 $97 forward @7 unknown T 131.22832206725343 378.49999999999937 0 150.0000000005281 425.00086686182499 0 #
-72 integer_attrib-name_attrib-gen-attrib $-1 -1 $-1 $-1 $44 2 4 2 1 1 1 1 1 1 1 1 1 1 1 0 1 1 1 @16 SKETCH_ENTITY_ID 600010 #
-73 point $-1 -1 -1 $-1 156.00000000052816 378.49999999999955 0 #
-74 integer_attrib-name_attrib-gen-attrib $-1 -1 $-1 $-1 $45 2 4 2 1 1 1 1 1 1 1 1 1 1 1 0 1 1 1 @16 SKETCH_ENTITY_ID 600006 #
-75 point $-1 -1 -1 $-1 150.0000000005281 378.49999999999937 0 #
-76 straight-curve $-1 -1 -1 $-1 24.000000000528161 550 0 1 1.8947806286936184e-14 0 I I #
-77 point $-1 -1 -1 $-1 30.000000000528104 550.00000000000011 0 #
-78 point $-1 -1 -1 $-1 24.000000000528161 550 0 #
-79 loop $-1 -1 -1 $-1 $-1 $98 $56 T 32.58971485842369 461.19913835570594 -1.7763568394002505e-15 78.264927493553856 477.36759912578395 0 periphery $9 F #
-80 coedge $-1 -1 -1 $-1 $99 $100 $98 $101 reversed $57 $-1 #
-81 coedge $-1 -1 -1 $-1 $102 $103 $58 $82 forward $79 $-1 #
-82 edge $-1 -1 -1 $-1 $104 -30.371317531063255 $105 -22.6272844506761 $81 $106 forward @7 unknown T 32.58971485842369 472.2068201085329 0 38.36348384282482 477.3675991257839 0 #
-83 edge $-1 -1 -1 $-1 $105 1.7122965622631301 $62 3.1415926535897931 $59 $107 forward @7 unknown T 24.000000000528026 472.2068201085329 0 32.58971485842369 482.10687545271969 0 #
-84 edge $-1 -1 -1 $-1 $61 -3.1415926535897931 $104 -1.735187371376079 $60 $108 forward @7 unknown T 30.000000000528104 477.3675991257839 0 38.363483842824834 487.23278107370447 0 #
-85 integer_attrib-name_attrib-gen-attrib $-1 -1 $-1 $-1 $61 2 4 2 1 1 1 1 1 1 1 1 1 1 1 0 1 1 1 @16 SKETCH_ENTITY_ID 600000 #
-86 point $-1 -1 -1 $-1 30.000000000528104 487.23278107370447 0 #
-87 integer_attrib-name_attrib-gen-attrib $-1 -1 $-1 $-1 $62 2 4 2 1 1 1 1 1 1 1 1 1 1 1 0 1 1 1 @16 SKETCH_ENTITY_ID 600003 #
-88 point $-1 -1 -1 $-1 24.000000000528132 482.10687545271969 0 #
-89 straight-curve $-1 -1 -1 $-1 150.00000000052805 0 0 1 0 0 I I #
-90 point $-1 -1 -1 $-1 150.00000000052805 0 0 #
-91 point $-1 -1 -1 $-1 156.0000000005281 0 0 #
-92 coedge $-1 -1 -1 $-1 $100 $99 $69 $93 forward $57 $-1 #
-93 edge $-1 -1 -1 $-1 $96 43.377346931476069 $94 49.254086333258201 $92 $109 forward @7 unknown T 131.22832206725354 425.00086686182499 0 135.67272262477803 428.84578164381105 0 #
-94 vertex $-1 -1 -1 $-1 $70 $110 #
-95 ellipse-curve $-1 -1 -1 $-1 5.2807536121690646e-10 378.49999999999943 0 0 0 -1 -156.00000000000006 5.6843418860808015e-14 0 0.65384615384615363 I I #
-96 vertex $-1 -1 -1 $-1 $111 $112 #
-97 ellipse-curve $-1 -1 -1 $-1 5.2807536121690646e-10 378.49999999999943 0 0 0 1 150.00000000000003 -5.6843418860808015e-14 0 0.64000000000000024 I I #
-98 coedge $-1 -1 -1 $-1 $103 $102 $80 $101 forward $79 $-1 #
-99 coedge $-1 -1 -1 $-1 $92 $80 $-1 $111 reversed $57 $-1 #
-100 coedge $-1 -1 -1 $-1 $80 $92 $-1 $113 reversed $57 $-1 #
-101 edge $-1 -1 -1 $-1 $114 67.664649856166989 $115 73.580734408076253 $98 $116 forward @7 unknown T 76.176522538613185 461.19913835570605 -1.7763568394002505e-15 78.264927493549095 466.73435480761998 0 #
-102 coedge $-1 -1 -1 $-1 $98 $81 $-1 $117 reversed $79 $-1 #
-103 coedge $-1 -1 -1 $-1 $81 $98 $-1 $118 reversed $79 $-1 #
-104 vertex $119 -1 -1 $-1 $118 $120 #
-105 vertex $121 -1 -1 $-1 $83 $122 #
-106 straight-curve $-1 -1 -1 $-1 15.719343592395489 457.1275437678666 0 -0.74557648766041495 -0.66642006350946492 0 I I #
-107 ellipse-curve $-1 -1 -1 $-1 34.000000000528132 482.10687545271969 0 -0 -0 -1 10.000000000000105 0 0 1 I I #
-108 ellipse-curve $-1 -1 -1 $-1 40.000000000528047 487.23278107370447 0 0 0 1 9.9999999999999432 0 0 1 I I #
-109 straight-curve $-1 -1 -1 $-1 98.42334439073403 396.62080931331582 0 0.75626980433686009 0.65425987424592025 -0 I I #
-110 point $-1 -1 -1 $-1 135.672722624778 428.84578164381105 0 #
-111 edge $-1 -1 -1 $-1 $96 0.50565894811029244 $114 1.0381167473981301 $99 $97 forward @7 unknown T 76.176522538613199 425.00086686182493 0 131.22832206725354 461.19913835570605 0 #
-112 point $-1 -1 -1 $-1 131.22832206725354 425.00086686182499 0 #
-113 edge $-1 -1 -1 $-1 $115 2.096357188827092 $94 2.6253843183841745 $100 $95 forward @7 unknown T 78.264927493549095 428.84578164380758 0 135.672722624778 466.73435480763214 0 #
-114 vertex $-1 -1 -1 $-1 $117 $123 #
-115 vertex $-1 -1 -1 $-1 $113 $124 #
-116 straight-curve $-1 -1 -1 $-1 52.290591092955282 397.89063087739783 -1.7763568394002505e-15 0.35300458210352997 0.93562159285360247 -0 I I #
-117 edge $-1 -1 -1 $-1 $114 1.0381167473981301 $105 1.3517849049317876 $102 $97 forward @7 unknown T 32.58971485842369 461.19913835570594 0 76.176522538613199 472.2068201085329 0 #
-118 edge $-1 -1 -1 $-1 $104 1.8192648143126493 $115 2.096357188827092 $103 $95 forward @7 unknown T 38.363483842824806 466.73435480761998 0 78.264927493553856 477.36759912578395 0 #
-119 integer_attrib-name_attrib-gen-attrib $-1 -1 $-1 $-1 $104 2 4 2 1 1 1 1 1 1 1 1 1 1 1 0 1 1 1 @16 SKETCH_ENTITY_ID 600011 #
-120 point $-1 -1 -1 $-1 38.363483842824813 477.3675991257839 0 #
-121 integer_attrib-name_attrib-gen-attrib $-1 -1 $-1 $-1 $105 2 4 2 1 1 1 1 1 1 1 1 1 1 1 0 1 1 1 @16 SKETCH_ENTITY_ID 600004 #
-122 point $-1 -1 -1 $-1 32.58971485842369 472.2068201085329 0 #
-123 point $-1 -1 -1 $-1 76.176522538613199 461.19913835570605 0 #
-124 point $-1 -1 -1 $-1 78.264927493549095 466.73435480761998 0 #
End-of-ACIS-data 
